<svg xmlns="http://www.w3.org/2000/svg" viewBox="0 0 1024 1024" width="200" height="200">
  <path
    fill="#2F3437"
    d="M469.333333 608h106.666667a32 32 0 0 0 22.613333-9.386667l320-320a32 32 0 0 0 0-45.226666l-106.666666-106.666667a32 32 0 0 0-45.226667 0l-320 320a32 32 0 0 0-9.386667 22.613333v106.666667c0 17.664 14.336 32 32 32z m93.44-64h-61.44v-61.44l288-288L850.773333 256l-288 288z m221.226667 309.674667H403.2v64h380.8q51.072 0 87.04-37.12 35.626667-36.650667 35.626667-88.32 0-51.626667-35.584-88.32-36.010667-37.12-87.082667-37.12H240q-24.021333 0-41.130667-17.621334-17.536-18.048-17.536-43.776 0-25.685333 17.493334-43.733333 17.152-17.664 41.173333-17.664H366.933333v-64H240q-51.072 0-87.04 37.077333-35.626667 36.693333-35.626667 88.32 0 51.669333 35.584 88.32 36.010667 37.12 87.082667 37.12h544q24.021333 0 41.130667 17.621334 17.536 18.048 17.536 43.776t-17.493334 43.776q-17.152 17.664-41.173333 17.664z"
  />
</svg>
